<svg xmlns="http://www.w3.org/2000/svg" viewBox="220 97 1260 1000" preserveAspectRatio="xMidYMid meet" version="1.0"><defs><g /><clipPath id="39aec186bb"><rect x="0" width="244" y="0" height="613" /></clipPath><clipPath id="a14ffcd302"><rect x="0" width="165" y="0" height="613" /></clipPath><clipPath id="2ff2a69cc8"><path d="M 0.964844 122.105469 L 79.019531 122.105469 L 79.019531 269.523438 L 0.964844 269.523438 Z M 0.964844 122.105469 " clip-rule="nonzero" /></clipPath><clipPath id="33eb73d809"><path d="M 0.964844 0.105469 L 79.019531 0.105469 L 79.019531 147.523438 L 0.964844 147.523438 Z M 0.964844 0.105469 " clip-rule="nonzero" /></clipPath><clipPath id="94d5c61b4c"><rect x="0" width="80" y="0" height="148" /></clipPath><clipPath id="22cf34e3c7"><path d="M 0.964844 83.078125 L 79.019531 83.078125 L 79.019531 161.132812 L 0.964844 161.132812 Z M 0.964844 83.078125 " clip-rule="nonzero" /></clipPath><clipPath id="9f8a594e98"><path d="M 39.992188 83.078125 C 18.4375 83.078125 0.964844 100.550781 0.964844 122.105469 C 0.964844 143.660156 18.4375 161.132812 39.992188 161.132812 C 61.546875 161.132812 79.019531 143.660156 79.019531 122.105469 C 79.019531 100.550781 61.546875 83.078125 39.992188 83.078125 Z M 39.992188 83.078125 " clip-rule="nonzero" /></clipPath><clipPath id="12abd1e694"><path d="M 0.964844 0.078125 L 79.019531 0.078125 L 79.019531 78.132812 L 0.964844 78.132812 Z M 0.964844 0.078125 " clip-rule="nonzero" /></clipPath><clipPath id="f9ac085850"><path d="M 39.992188 0.078125 C 18.4375 0.078125 0.964844 17.550781 0.964844 39.105469 C 0.964844 60.660156 18.4375 78.132812 39.992188 78.132812 C 61.546875 78.132812 79.019531 60.660156 79.019531 39.105469 C 79.019531 17.550781 61.546875 0.078125 39.992188 0.078125 Z M 39.992188 0.078125 " clip-rule="nonzero" /></clipPath><clipPath id="dac605a316"><rect x="0" width="80" y="0" height="79" /></clipPath><clipPath id="dc9e5c399b"><path d="M 0.964844 0.476562 L 79.019531 0.476562 L 79.019531 78.53125 L 0.964844 78.53125 Z M 0.964844 0.476562 " clip-rule="nonzero" /></clipPath><clipPath id="5eb77ad2fb"><path d="M 39.992188 0.476562 C 18.4375 0.476562 0.964844 17.949219 0.964844 39.503906 C 0.964844 61.058594 18.4375 78.53125 39.992188 78.53125 C 61.546875 78.53125 79.019531 61.058594 79.019531 39.503906 C 79.019531 17.949219 61.546875 0.476562 39.992188 0.476562 Z M 39.992188 0.476562 " clip-rule="nonzero" /></clipPath><clipPath id="cd78d4a1e3"><path d="M 0.964844 0.476562 L 79.019531 0.476562 L 79.019531 78.53125 L 0.964844 78.53125 Z M 0.964844 0.476562 " clip-rule="nonzero" /></clipPath><clipPath id="08ab1125c3"><path d="M 39.992188 0.476562 C 18.4375 0.476562 0.964844 17.949219 0.964844 39.503906 C 0.964844 61.058594 18.4375 78.53125 39.992188 78.53125 C 61.546875 78.53125 79.019531 61.058594 79.019531 39.503906 C 79.019531 17.949219 61.546875 0.476562 39.992188 0.476562 Z M 39.992188 0.476562 " clip-rule="nonzero" /></clipPath><clipPath id="6c1e07a576"><rect x="0" width="80" y="0" height="79" /></clipPath><clipPath id="c46a228558"><rect x="0" width="80" y="0" height="270" /></clipPath><clipPath id="f43a953ba4"><rect x="0" width="238" y="0" height="613" /></clipPath><clipPath id="f248a832e1"><rect x="0" width="147" y="0" height="613" /></clipPath><linearGradient id="sitarGlow" x1="-100%" y1="0%" x2="0%" y2="0%">
    <stop offset="0%" stop-color="#ffffff" />
    <stop offset="40%" stop-color="#ffffff" />
    <stop offset="50%" stop-color="#FFD700" />
    <stop offset="60%" stop-color="#ffffff" />
    <stop offset="100%" stop-color="#ffffff" />
    <animate attributeName="x1" values="-100%; 250%" dur="4s" repeatCount="indefinite" />
    <animate attributeName="x2" values="0%; 350%" dur="4s" repeatCount="indefinite" />
</linearGradient><style>
    @keyframes wealthPulse {
        0%, 100% { transform: scale(1); }
        50% { transform: scale(1.05); }
    }
    .wealth-pulse {
        transform-origin: 768px 1140px;
        animation: wealthPulse 4s infinite ease-in-out;
    }
</style></defs><g transform="translate(775, 400) scale(1.1934) translate(-775, -400)" fill="url(#sitarGlow)"><g transform="matrix(1, 0, 0, 1, 292, 130)"><g clip-path="url(#39aec186bb)"><g fill="#f3f3f1" fill-opacity="1"><g transform="translate(1.198928, 440.878659)"><g><path d="M 21.546875 0 L 21.546875 -65.015625 L 135.796875 -65.015625 C 140.148438 -65.015625 143.800781 -65.910156 146.75 -67.703125 C 149.707031 -69.492188 152.019531 -71.863281 153.6875 -74.8125 C 155.351562 -77.769531 156.1875 -80.914062 156.1875 -84.25 C 156.1875 -87.832031 155.351562 -91.097656 153.6875 -94.046875 C 152.019531 -97.003906 149.707031 -99.378906 146.75 -101.171875 C 143.800781 -102.960938 140.148438 -103.859375 135.796875 -103.859375 L 101.171875 -103.859375 C 84.503906 -103.859375 69.375 -107.0625 55.78125 -113.46875 C 42.1875 -119.882812 31.347656 -129.179688 23.265625 -141.359375 C 15.191406 -153.546875 11.15625 -168.234375 11.15625 -185.421875 C 11.15625 -202.347656 15 -217.09375 22.6875 -229.65625 C 30.382812 -242.226562 40.769531 -251.972656 53.84375 -258.890625 C 66.925781 -265.816406 81.421875 -269.28125 97.328125 -269.28125 L 220.046875 -269.28125 L 220.046875 -204.265625 L 108.484375 -204.265625 C 104.890625 -204.265625 101.742188 -203.492188 99.046875 -201.953125 C 96.359375 -200.421875 94.304688 -198.367188 92.890625 -195.796875 C 91.484375 -193.234375 90.78125 -190.414062 90.78125 -187.34375 C 90.78125 -184.257812 91.484375 -181.4375 92.890625 -178.875 C 94.304688 -176.3125 96.359375 -174.195312 99.046875 -172.53125 C 101.742188 -170.863281 104.890625 -170.03125 108.484375 -170.03125 L 145.796875 -170.03125 C 164.003906 -170.03125 179.90625 -166.628906 193.5 -159.828125 C 207.09375 -153.035156 217.609375 -143.613281 225.046875 -131.5625 C 232.484375 -119.507812 236.203125 -105.273438 236.203125 -88.859375 C 236.203125 -70.140625 232.289062 -54.109375 224.46875 -40.765625 C 216.644531 -27.429688 206.191406 -17.300781 193.109375 -10.375 C 180.035156 -3.457031 165.546875 0 149.640625 0 Z M 21.546875 0 " /></g></g></g></g></g><g transform="matrix(1, 0, 0, 1, 666, 130)"><g clip-path="url(#a14ffcd302)"><g fill="#f3f3f1" fill-opacity="1"><g transform="translate(0.949887, 440.878659)"><g><path d="M 97.703125 0 C 78.210938 0 62.953125 -5.507812 51.921875 -16.53125 C 40.898438 -27.5625 35.390625 -42.566406 35.390625 -61.546875 L 35.390625 -245.4375 L 109.25 -245.4375 L 109.25 -68.46875 C 109.25 -65.90625 110.144531 -63.789062 111.9375 -62.125 C 113.738281 -60.457031 115.921875 -59.625 118.484375 -59.625 L 161.953125 -59.625 L 161.953125 0 Z M 5.390625 -143.109375 L 5.390625 -199.265625 L 161.953125 -199.265625 L 161.953125 -143.109375 Z M 5.390625 -143.109375 " /></g></g></g></g></g><g transform="matrix(1, 0, 0, 1, 564, 302)"><g clip-path="url(#c46a228558)"><g clip-path="url(#2ff2a69cc8)"><g transform="matrix(1, 0, 0, 1, 0, 122)"><g clip-path="url(#94d5c61b4c)"><g clip-path="url(#33eb73d809)"><path d="M 0.964844 0.105469 L 79.019531 0.105469 L 79.019531 147.375 L 0.964844 147.375 Z M 0.964844 0.105469 " fill-opacity="1" fill-rule="nonzero" /></g></g></g></g><g clip-path="url(#22cf34e3c7)"><g clip-path="url(#9f8a594e98)"><g transform="matrix(1, 0, 0, 1, 0, 83)"><g clip-path="url(#dac605a316)"><g clip-path="url(#12abd1e694)"><g clip-path="url(#f9ac085850)"><path d="M 0.964844 0.078125 L 79.019531 0.078125 L 79.019531 78.132812 L 0.964844 78.132812 Z M 0.964844 0.078125 " fill-opacity="1" fill-rule="nonzero" /></g></g></g></g></g></g><g clip-path="url(#dc9e5c399b)"><g clip-path="url(#5eb77ad2fb)"><g transform="matrix(1, 0, 0, 1, 0, 0.000000000000113687)"><g clip-path="url(#6c1e07a576)"><g clip-path="url(#cd78d4a1e3)"><g clip-path="url(#08ab1125c3)"><path d="M 0.964844 0.476562 L 79.019531 0.476562 L 79.019531 78.53125 L 0.964844 78.53125 Z M 0.964844 0.476562 " fill-opacity="1" fill-rule="nonzero" fill="#C9A04A"><animate attributeName="opacity" values="1; 0.2; 1" dur="1.5s" repeatCount="indefinite" /></path></g></g></g></g></g></g></g></g><g transform="matrix(1, 0, 0, 1, 847, 130)"><g clip-path="url(#f43a953ba4)"><g fill="#f3f3f1" fill-opacity="1"><g transform="translate(1.888988, 440.878659)"><g><path d="M 100.015625 5 C 83.347656 5 68.34375 0.769531 55 -7.6875 C 41.664062 -16.15625 31.148438 -27.890625 23.453125 -42.890625 C 15.765625 -57.890625 11.921875 -75.394531 11.921875 -95.40625 C 11.921875 -116.6875 16.664062 -135.46875 26.15625 -151.75 C 35.644531 -168.039062 48.785156 -180.800781 65.578125 -190.03125 C 82.378906 -199.269531 101.9375 -203.890625 124.25 -203.890625 C 146.050781 -203.890625 165.03125 -199.460938 181.1875 -190.609375 C 197.34375 -181.765625 209.972656 -169.457031 219.078125 -153.6875 C 228.179688 -137.914062 232.734375 -119.640625 232.734375 -98.859375 L 232.734375 0 L 162.71875 0 L 162.71875 -29.625 L 160.421875 -29.625 C 157.078125 -22.695312 152.648438 -16.601562 147.140625 -11.34375 C 141.628906 -6.09375 135.023438 -2.054688 127.328125 0.765625 C 119.640625 3.585938 110.535156 5 100.015625 5 Z M 122.71875 -59.625 C 129.644531 -59.625 135.734375 -61.289062 140.984375 -64.625 C 146.242188 -67.957031 150.347656 -72.632812 153.296875 -78.65625 C 156.242188 -84.6875 157.71875 -91.550781 157.71875 -99.25 C 157.71875 -106.6875 156.242188 -113.222656 153.296875 -118.859375 C 150.347656 -124.503906 146.242188 -128.992188 140.984375 -132.328125 C 135.734375 -135.660156 129.644531 -137.328125 122.71875 -137.328125 C 116.050781 -137.328125 110.023438 -135.660156 104.640625 -132.328125 C 99.253906 -128.992188 95.082031 -124.503906 92.125 -118.859375 C 89.175781 -113.222656 87.703125 -106.6875 87.703125 -99.25 C 87.703125 -91.550781 89.175781 -84.6875 92.125 -78.65625 C 95.082031 -72.632812 99.253906 -67.957031 104.640625 -64.625 C 110.023438 -61.289062 116.050781 -59.625 122.71875 -59.625 Z M 122.71875 -59.625 " /></g></g></g></g></g><g transform="matrix(1, 0, 0, 1, 1107, 130)"><g clip-path="url(#f248a832e1)"><g fill="#f3f3f1" fill-opacity="1"><g transform="translate(1.551571, 440.878659)"><g><path d="M 15.765625 0 L 15.765625 -137.328125 C 15.765625 -156.304688 21.28125 -171.3125 32.3125 -182.34375 C 43.34375 -193.375 58.726562 -198.890625 78.46875 -198.890625 L 142.328125 -198.890625 L 142.328125 -143.109375 L 104.25 -143.109375 C 99.882812 -143.109375 96.351562 -141.757812 93.65625 -139.0625 C 90.96875 -136.375 89.625 -132.847656 89.625 -128.484375 L 89.625 0 Z M 15.765625 0 " /></g></g></g></g></g></g><g transform="translate(768, 1140) scale(2.31) translate(-768, -1140)"><g class="wealth-pulse"><g fill="#C9A04A" fill-opacity="1"><g transform="translate(598.297133, 1042.207282)"><g><path d="M 33.5 1.296875 C 27.832031 1.296875 22.78125 0.148438 18.34375 -2.140625 C 13.914062 -4.441406 10.429688 -7.707031 7.890625 -11.9375 C 5.359375 -16.175781 4.09375 -21.195312 4.09375 -27 L 4.09375 -70 L 25 -70 L 25 -27 C 25 -25 25.347656 -23.265625 26.046875 -21.796875 C 26.742188 -20.328125 27.726562 -19.175781 29 -18.34375 C 30.269531 -17.507812 31.769531 -17.09375 33.5 -17.09375 C 35.226562 -17.09375 36.726562 -17.507812 38 -18.34375 C 39.269531 -19.175781 40.253906 -20.328125 40.953125 -21.796875 C 41.648438 -23.265625 42 -25 42 -27 L 42 -70 L 63.09375 -70 L 63.09375 -27 C 63.09375 -25 63.425781 -23.265625 64.09375 -21.796875 C 64.757812 -20.328125 65.742188 -19.175781 67.046875 -18.34375 C 68.347656 -17.507812 69.863281 -17.09375 71.59375 -17.09375 C 73.332031 -17.09375 74.832031 -17.507812 76.09375 -18.34375 C 77.363281 -19.175781 78.347656 -20.328125 79.046875 -21.796875 C 79.742188 -23.265625 80.09375 -25 80.09375 -27 L 80.09375 -70 L 100.90625 -70 L 100.90625 -27 C 100.90625 -21.195312 99.65625 -16.175781 97.15625 -11.9375 C 94.65625 -7.707031 91.203125 -4.441406 86.796875 -2.140625 C 82.398438 0.148438 77.332031 1.296875 71.59375 1.296875 C 69 1.296875 66.550781 1.03125 64.25 0.5 C 61.945312 -0.03125 59.8125 -0.796875 57.84375 -1.796875 C 55.882812 -2.796875 54.101562 -4.03125 52.5 -5.5 C 50.894531 -4.101562 49.109375 -2.882812 47.140625 -1.84375 C 45.179688 -0.8125 43.066406 -0.03125 40.796875 0.5 C 38.535156 1.03125 36.101562 1.296875 33.5 1.296875 Z M 33.5 1.296875 " /></g></g></g><g fill="#C9A04A" fill-opacity="1"><g transform="translate(699.2931, 1042.207282)"><g><path d="M 33.296875 0 C 27.492188 0 22.328125 -1 17.796875 -3 C 13.265625 -5 9.679688 -7.914062 7.046875 -11.75 C 4.410156 -15.582031 3.09375 -20.265625 3.09375 -25.796875 C 3.09375 -31.867188 4.394531 -36.90625 7 -40.90625 C 9.601562 -44.90625 12.988281 -47.921875 17.15625 -49.953125 C 21.320312 -51.984375 25.703125 -53 30.296875 -53 C 35.035156 -53 39.285156 -52.015625 43.046875 -50.046875 C 46.816406 -48.078125 49.816406 -45.257812 52.046875 -41.59375 C 54.285156 -37.925781 55.40625 -33.53125 55.40625 -28.40625 C 55.40625 -27.132812 55.335938 -25.679688 55.203125 -24.046875 C 55.066406 -22.410156 54.863281 -21.03125 54.59375 -19.90625 L 22.796875 -19.90625 C 23.066406 -18.769531 23.566406 -17.816406 24.296875 -17.046875 C 25.035156 -16.285156 26.035156 -15.738281 27.296875 -15.40625 C 28.566406 -15.070312 30 -14.90625 31.59375 -14.90625 L 50.09375 -14.90625 L 50.09375 0 Z M 21.90625 -30.5 L 37.703125 -30.5 C 37.703125 -31.300781 37.597656 -32.066406 37.390625 -32.796875 C 37.191406 -33.535156 36.875 -34.21875 36.4375 -34.84375 C 36.007812 -35.476562 35.492188 -36.046875 34.890625 -36.546875 C 34.296875 -37.046875 33.582031 -37.425781 32.75 -37.6875 C 31.914062 -37.957031 31 -38.09375 30 -38.09375 C 28.726562 -38.09375 27.609375 -37.894531 26.640625 -37.5 C 25.679688 -37.101562 24.867188 -36.570312 24.203125 -35.90625 C 23.535156 -35.238281 23.015625 -34.4375 22.640625 -33.5 C 22.273438 -32.5625 22.03125 -31.5625 21.90625 -30.5 Z M 21.90625 -30.5 " /></g></g></g><g fill="#C9A04A" fill-opacity="1"><g transform="translate(753.790856, 1042.207282)"><g><path d="M 26 1.296875 C 21.664062 1.296875 17.765625 0.195312 14.296875 -2 C 10.828125 -4.195312 8.09375 -7.242188 6.09375 -11.140625 C 4.09375 -15.046875 3.09375 -19.597656 3.09375 -24.796875 C 3.09375 -30.328125 4.328125 -35.207031 6.796875 -39.4375 C 9.265625 -43.675781 12.679688 -46.992188 17.046875 -49.390625 C 21.410156 -51.796875 26.492188 -53 32.296875 -53 C 37.960938 -53 42.894531 -51.847656 47.09375 -49.546875 C 51.300781 -47.242188 54.585938 -44.039062 56.953125 -39.9375 C 59.316406 -35.84375 60.5 -31.097656 60.5 -25.703125 L 60.5 0 L 42.296875 0 L 42.296875 -7.703125 L 41.703125 -7.703125 C 40.835938 -5.898438 39.6875 -4.316406 38.25 -2.953125 C 36.8125 -1.585938 35.09375 -0.539062 33.09375 0.1875 C 31.09375 0.925781 28.726562 1.296875 26 1.296875 Z M 31.90625 -15.5 C 33.695312 -15.5 35.273438 -15.929688 36.640625 -16.796875 C 38.015625 -17.660156 39.082031 -18.875 39.84375 -20.4375 C 40.613281 -22.007812 41 -23.796875 41 -25.796875 C 41 -27.734375 40.613281 -29.429688 39.84375 -30.890625 C 39.082031 -32.359375 38.015625 -33.523438 36.640625 -34.390625 C 35.273438 -35.265625 33.695312 -35.703125 31.90625 -35.703125 C 30.164062 -35.703125 28.59375 -35.265625 27.1875 -34.390625 C 25.789062 -33.523438 24.707031 -32.359375 23.9375 -30.890625 C 23.175781 -29.429688 22.796875 -27.734375 22.796875 -25.796875 C 22.796875 -23.796875 23.175781 -22.007812 23.9375 -20.4375 C 24.707031 -18.875 25.789062 -17.660156 27.1875 -16.796875 C 28.59375 -15.929688 30.164062 -15.5 31.90625 -15.5 Z M 31.90625 -15.5 " /></g></g></g><g fill="#C9A04A" fill-opacity="1"><g transform="translate(814.588366, 1042.207282)"><g><path d="M 4.296875 0 L 4.296875 -73 L 23.40625 -73 L 23.40625 0 Z M 4.296875 0 " /></g></g></g><g fill="#C9A04A" fill-opacity="1"><g transform="translate(838.287316, 1042.207282)"><g><path d="M 25.40625 0 C 20.332031 0 16.363281 -1.429688 13.5 -4.296875 C 10.632812 -7.160156 9.203125 -11.0625 9.203125 -16 L 9.203125 -63.796875 L 28.40625 -63.796875 L 28.40625 -17.796875 C 28.40625 -17.128906 28.632812 -16.578125 29.09375 -16.140625 C 29.5625 -15.710938 30.128906 -15.5 30.796875 -15.5 L 42.09375 -15.5 L 42.09375 0 Z M 1.40625 -37.203125 L 1.40625 -51.796875 L 42.09375 -51.796875 L 42.09375 -37.203125 Z M 1.40625 -37.203125 " /></g></g></g><g fill="#C9A04A" fill-opacity="1"><g transform="translate(879.685582, 1042.207282)"><g><path d="M 4.296875 0 L 4.296875 -73 L 23.40625 -73 L 23.40625 -48.90625 C 25.269531 -50.238281 27.332031 -51.253906 29.59375 -51.953125 C 31.863281 -52.648438 34.132812 -53 36.40625 -53 C 40.664062 -53 44.378906 -52.066406 47.546875 -50.203125 C 50.710938 -48.335938 53.175781 -45.671875 54.9375 -42.203125 C 56.707031 -38.734375 57.59375 -34.597656 57.59375 -29.796875 L 57.59375 0 L 38.40625 0 L 38.40625 -28.09375 C 38.40625 -29.757812 38.050781 -31.160156 37.34375 -32.296875 C 36.644531 -33.429688 35.726562 -34.316406 34.59375 -34.953125 C 33.46875 -35.585938 32.269531 -35.90625 31 -35.90625 C 29.664062 -35.90625 28.414062 -35.601562 27.25 -35 C 26.082031 -34.394531 25.148438 -33.507812 24.453125 -32.34375 C 23.753906 -31.175781 23.40625 -29.796875 23.40625 -28.203125 L 23.40625 0 Z M 4.296875 0 " /></g></g></g></g></g></svg>